<svg width="1059" height="790" viewBox="0 0 1059 790" fill="none" xmlns="http://www.w3.org/2000/svg">
<g clip-path="url(#clip0_1_11)">
<rect width="1059" height="790" fill="white"/>
<rect x="-4" y="7" width="1063" height="783" fill="#F94973"/>
<g clip-path="url(#clip1_1_11)">
<path d="M528.209 142L360 248.227L389.435 295.057L409.84 282.175V432H643.981V281.965L664.221 294.952L693.985 248.332L528.209 142Z" fill="#F94973"/>
<path d="M554.741 215.585C543.919 218.144 535.456 227.136 531.366 240.437C529.455 246.646 528.62 254.351 529.246 259.961C530.47 271.048 535.695 279.741 543.442 283.646C547.83 285.86 552.174 286.234 556.264 284.783C559.13 283.765 562.996 281.491 565.518 279.337C572.22 273.636 576.997 264.854 578.788 254.949C579.4 251.553 579.549 249.832 579.535 246.047C579.535 238.806 578.52 233.524 576.266 228.841C572.832 221.72 567.399 217.052 560.936 215.66C559.16 215.286 556.204 215.256 554.741 215.585Z" fill="white"/>
<path d="M485.735 216.274C479.749 217.321 474.107 222.049 470.749 228.826C468.913 232.522 468.047 236.068 467.659 241.499C467.48 243.878 467.569 247.693 467.838 250.087C469.375 263.672 475.704 275.118 485.243 281.521C487.153 282.808 490.318 284.379 492.467 285.097C493.99 285.606 494.378 285.665 496.064 285.74C498.303 285.83 499.901 285.621 501.856 284.992C504.886 284.02 507.364 282.494 509.692 280.16C514.305 275.536 517.171 268.564 517.842 260.365C518.111 256.984 517.813 251.957 517.081 248.022C514.156 232.058 505.005 220.239 492.885 216.737C490.467 216.049 487.989 215.885 485.735 216.274Z" fill="white"/>
<path d="M598.924 270.868C588.938 272.514 580.251 279.411 574.833 290.019C572.34 294.912 571.086 298.891 570.116 305.086C569.772 307.3 569.713 308.138 569.713 310.681C569.713 313.793 569.892 315.334 570.534 317.848C572.25 324.595 576.295 330.086 581.326 332.525C584.072 333.857 586.58 334.35 589.401 334.096C596.252 333.498 602.357 330.401 607.791 324.775C613.776 318.566 617.896 309.978 619.24 300.956C619.583 298.712 619.822 294.283 619.717 292.473C619.165 283.167 614.179 274.983 607.239 271.991C604.552 270.839 601.596 270.435 598.924 270.868Z" fill="white"/>
<path d="M444.403 274.788C437.91 275.881 432.447 280.429 430.432 286.443C429.715 288.568 429.118 291.605 428.864 294.373C427.939 304.412 431.462 315.753 438.089 324.072C443.045 330.281 449.433 334.575 456.583 336.505C462.599 338.121 468.002 336.595 472.585 332.001C476.675 327.902 478.72 321.917 478.72 314.033C478.72 310.965 478.57 309.29 478.033 306.447C476.212 296.692 470.689 287.356 463.121 281.237C459.643 278.424 454.956 275.836 452.001 275.103C449.672 274.519 446.732 274.399 444.403 274.788Z" fill="white"/>
<path d="M521.858 311.28C516.663 311.863 511.528 313.255 506.468 315.484C498.736 318.91 491.273 324.61 486.452 330.804C476.048 344.18 468.823 358.663 465.883 372.024C465.703 372.846 465.39 374.088 465.196 374.791C464.196 378.427 464.36 382.557 465.659 386.162C467.748 391.967 472.271 396.471 477.869 398.356C481.212 399.478 486.213 399.463 491.78 398.296C495.408 397.548 498.124 396.68 505.826 393.823C516.544 389.828 519.514 389.065 526.724 388.392C529.948 388.092 530.53 388.077 532.754 388.242C538.441 388.646 542.934 389.888 551.562 393.419C559.204 396.546 563.473 398.236 564.548 398.535C575.295 401.588 585.968 397.832 589.625 389.708C591.222 386.132 591.401 380.312 590.058 374.791C588.744 369.42 584.848 360.698 581.117 354.818C570.593 338.21 563.085 328.979 554.398 321.947C546.233 315.349 539.382 312.222 530.948 311.28C528.575 311.01 524.276 311.01 521.858 311.28Z" fill="white"/>
</g>
<path d="M327.67 548V540.33L374.716 470.102H327.159V460.727H387.33V468.398L340.284 538.625H387.841V548H327.67ZM430.795 549.364C424.886 549.364 419.702 547.957 415.241 545.145C410.81 542.332 407.344 538.398 404.844 533.341C402.372 528.284 401.136 522.375 401.136 515.614C401.136 508.795 402.372 502.844 404.844 497.759C407.344 492.673 410.81 488.724 415.241 485.912C419.702 483.099 424.886 481.693 430.795 481.693C436.705 481.693 441.875 483.099 446.307 485.912C450.767 488.724 454.233 492.673 456.705 497.759C459.205 502.844 460.455 508.795 460.455 515.614C460.455 522.375 459.205 528.284 456.705 533.341C454.233 538.398 450.767 542.332 446.307 545.145C441.875 547.957 436.705 549.364 430.795 549.364ZM430.795 540.33C435.284 540.33 438.977 539.179 441.875 536.878C444.773 534.577 446.918 531.551 448.31 527.801C449.702 524.051 450.398 519.989 450.398 515.614C450.398 511.239 449.702 507.162 448.31 503.384C446.918 499.605 444.773 496.551 441.875 494.222C438.977 491.892 435.284 490.727 430.795 490.727C426.307 490.727 422.614 491.892 419.716 494.222C416.818 496.551 414.673 499.605 413.281 503.384C411.889 507.162 411.193 511.239 411.193 515.614C411.193 519.989 411.889 524.051 413.281 527.801C414.673 531.551 416.818 534.577 419.716 536.878C422.614 539.179 426.307 540.33 430.795 540.33ZM502.397 549.364C496.488 549.364 491.303 547.957 486.843 545.145C482.411 542.332 478.945 538.398 476.445 533.341C473.974 528.284 472.738 522.375 472.738 515.614C472.738 508.795 473.974 502.844 476.445 497.759C478.945 492.673 482.411 488.724 486.843 485.912C491.303 483.099 496.488 481.693 502.397 481.693C508.306 481.693 513.477 483.099 517.908 485.912C522.369 488.724 525.835 492.673 528.306 497.759C530.806 502.844 532.056 508.795 532.056 515.614C532.056 522.375 530.806 528.284 528.306 533.341C525.835 538.398 522.369 542.332 517.908 545.145C513.477 547.957 508.306 549.364 502.397 549.364ZM502.397 540.33C506.886 540.33 510.579 539.179 513.477 536.878C516.374 534.577 518.519 531.551 519.911 527.801C521.303 524.051 521.999 519.989 521.999 515.614C521.999 511.239 521.303 507.162 519.911 503.384C518.519 499.605 516.374 496.551 513.477 494.222C510.579 491.892 506.886 490.727 502.397 490.727C497.908 490.727 494.215 491.892 491.317 494.222C488.42 496.551 486.275 499.605 484.883 503.384C483.491 507.162 482.795 511.239 482.795 515.614C482.795 519.989 483.491 524.051 484.883 527.801C486.275 531.551 488.42 534.577 491.317 536.878C494.215 539.179 497.908 540.33 502.397 540.33ZM572.124 549.364C566.669 549.364 561.854 547.986 557.678 545.23C553.501 542.446 550.234 538.526 547.876 533.469C545.518 528.384 544.339 522.375 544.339 515.443C544.339 508.568 545.518 502.602 547.876 497.545C550.234 492.489 553.516 488.582 557.72 485.827C561.925 483.071 566.783 481.693 572.294 481.693C576.555 481.693 579.922 482.403 582.393 483.824C584.893 485.216 586.797 486.807 588.104 488.597C589.439 490.358 590.476 491.807 591.214 492.943H592.067V460.727H602.124V548H592.408V537.943H591.214C590.476 539.136 589.425 540.642 588.061 542.46C586.697 544.25 584.751 545.855 582.223 547.276C579.695 548.668 576.328 549.364 572.124 549.364ZM573.487 540.33C577.521 540.33 580.93 539.278 583.714 537.176C586.499 535.045 588.615 532.105 590.064 528.355C591.513 524.577 592.237 520.216 592.237 515.273C592.237 510.386 591.527 506.111 590.107 502.446C588.686 498.753 586.584 495.884 583.8 493.838C581.016 491.764 577.578 490.727 573.487 490.727C569.226 490.727 565.675 491.821 562.834 494.009C560.021 496.168 557.905 499.108 556.484 502.83C555.092 506.523 554.396 510.67 554.396 515.273C554.396 519.932 555.107 524.165 556.527 527.972C557.976 531.75 560.107 534.761 562.919 537.006C565.76 539.222 569.283 540.33 573.487 540.33ZM648.53 549.364C642.621 549.364 637.436 547.957 632.976 545.145C628.544 542.332 625.078 538.398 622.578 533.341C620.107 528.284 618.871 522.375 618.871 515.614C618.871 508.795 620.107 502.844 622.578 497.759C625.078 492.673 628.544 488.724 632.976 485.912C637.436 483.099 642.621 481.693 648.53 481.693C654.439 481.693 659.609 483.099 664.041 485.912C668.501 488.724 671.967 492.673 674.439 497.759C676.939 502.844 678.189 508.795 678.189 515.614C678.189 522.375 676.939 528.284 674.439 533.341C671.967 538.398 668.501 542.332 664.041 545.145C659.609 547.957 654.439 549.364 648.53 549.364ZM648.53 540.33C653.018 540.33 656.712 539.179 659.609 536.878C662.507 534.577 664.652 531.551 666.044 527.801C667.436 524.051 668.132 519.989 668.132 515.614C668.132 511.239 667.436 507.162 666.044 503.384C664.652 499.605 662.507 496.551 659.609 494.222C656.712 491.892 653.018 490.727 648.53 490.727C644.041 490.727 640.348 491.892 637.45 494.222C634.553 496.551 632.408 499.605 631.016 503.384C629.624 507.162 628.928 511.239 628.928 515.614C628.928 519.989 629.624 524.051 631.016 527.801C632.408 531.551 634.553 534.577 637.45 536.878C640.348 539.179 644.041 540.33 648.53 540.33ZM693.54 548V482.545H703.256V492.773H704.109C705.472 489.278 707.674 486.565 710.714 484.634C713.754 482.673 717.404 481.693 721.665 481.693C725.984 481.693 729.577 482.673 732.447 484.634C735.344 486.565 737.603 489.278 739.222 492.773H739.904C741.58 489.392 744.094 486.707 747.447 484.719C750.799 482.702 754.819 481.693 759.506 481.693C765.359 481.693 770.146 483.526 773.867 487.19C777.589 490.827 779.45 496.494 779.45 504.193V548H769.393V504.193C769.393 499.364 768.072 495.912 765.43 493.838C762.788 491.764 759.677 490.727 756.097 490.727C751.495 490.727 747.93 492.119 745.401 494.903C742.873 497.659 741.609 501.153 741.609 505.386V548H731.381V503.17C731.381 499.449 730.174 496.452 727.759 494.179C725.344 491.878 722.234 490.727 718.427 490.727C715.813 490.727 713.37 491.423 711.097 492.815C708.853 494.207 707.035 496.139 705.643 498.611C704.279 501.054 703.597 503.881 703.597 507.091V548H693.54Z" fill="white"/>
</g>
<defs>
<clipPath id="clip0_1_11">
<rect width="1059" height="790" fill="white"/>
</clipPath>
<clipPath id="clip1_1_11">
<rect width="334" height="290" fill="white" transform="translate(360 142)"/>
</clipPath>
</defs>
</svg>
